<svg xmlns="http://www.w3.org/2000/svg" width="16px" height="16px" viewBox="0 0 18 18" preserveAspectRatio="xMinYMin meet">
    <path fill="#FFFFFF" d="M13.5943767,9 L11.2942172,11.291572 C10.9029633,11.6813653 10.9017791,12.3145291 11.2915724,12.7057831 C11.6813656,13.0970371 12.3145295,13.0982212 12.7057834,12.708428 L16.5339081,8.89459534 C17.0122594,8.41802996 17.0226374,7.62453348 16.5365481,7.13662937 L12.7084233,3.294212 C12.3186274,2.90296072 11.6854635,2.90178094 11.2942122,3.29157689 C10.902961,3.68137284 10.9017812,4.31453672 11.2915771,4.705788 L13.5772554,7 L4.99878564,7 C2.79121581,7 1,8.79333215 1,11 C1,13.2090846 2.78756752,15 4.9951185,15 L7,15 C7.55228475,15 8,14.5522847 8,14 C8,13.4477153 7.55228475,13 7,13 L4.9951185,13 C3.89297562,13 3,12.1053519 3,11 C3,9.89737333 3.89631432,9 4.99878564,9 L13.5943767,9 Z"/>
</svg>
