<svg xmlns="http://www.w3.org/2000/svg" width="16px" height="16px" viewBox="0 0 18 18" preserveAspectRatio="xMinYMin meet">
    <path fill="#FFFFFF" d="M4.39697383,9 L6.70445204,11.2902483 C7.09643706,11.6793064 7.09880981,12.3124669 6.70975173,12.704452 C6.32069366,13.096437 5.68753312,13.0988097 5.2955481,12.7097517 L1.46742303,8.9102111 C0.987762098,8.43413178 0.977383357,7.64061697 1.46214298,7.15223767 L5.29026801,3.29552824 C5.67933703,2.90355407 6.31249762,2.90119897 6.70447179,3.29026798 C7.09644596,3.679337 7.09880106,4.31249759 6.70973205,4.70447176 L4.43121736,7 L13.0012144,7 C15.2087842,7 17,8.79333215 17,11 C17,13.2090846 15.2124325,15 13.0048815,15 L11,15 C10.4477153,15 10,14.5522847 10,14 C10,13.4477153 10.4477153,13 11,13 L13.0048815,13 C14.1070244,13 15,12.1053519 15,11 C15,9.89737333 14.1036857,9 13.0012144,9 L4.39697383,9 Z"/>
</svg>
