<?xml version="1.0" encoding="utf-8"?>
<!-- Generator: Adobe Illustrator 18.1.1, SVG Export Plug-In . SVG Version: 6.00 Build 0)  -->
<!DOCTYPE svg PUBLIC "-//W3C//DTD SVG 1.1//EN" "http://www.w3.org/Graphics/SVG/1.1/DTD/svg11.dtd">
<svg version="1.1" id="Layer_1" xmlns="http://www.w3.org/2000/svg" xmlns:xlink="http://www.w3.org/1999/xlink" x="0px" y="0px"
	 viewBox="0 0 120 72" style="enable-background:new 0 0 120 72;" xml:space="preserve">
<style type="text/css">
	.st0{fill:#FFFFFF;}
</style>
<g>
	<path class="st0" d="M93,42V30l-8.3-1.4c-0.5-1.7-1.2-3.3-2-4.8l4.9-6.9l-8.5-8.5l-6.9,4.9c-1.5-0.8-3.1-1.5-4.8-2L66,3H54
		l-1.4,8.3c-1.7,0.5-3.3,1.2-4.8,2l-6.9-4.9l-8.5,8.5l4.9,6.9c-0.8,1.5-1.5,3.1-2,4.8L27,30v12l8.3,1.4c0.5,1.7,1.2,3.3,2,4.8
		l-4.9,6.9l8.5,8.5l6.9-4.9c1.5,0.8,3.1,1.5,4.8,2L54,69h12l1.4-8.3c1.7-0.5,3.3-1.2,4.8-2l6.9,4.9l8.5-8.5l-4.9-6.9
		c0.8-1.5,1.5-3.1,2-4.8L93,42z M83.8,54.6l-5.2,5.2l-6.4-4.4l-1.4,0.8c-1.3,0.7-2.7,1.3-4.2,1.7L65,58.4L63.7,66h-7.3L55,58.4
		l-1.6-0.5c-1.5-0.4-2.9-1-4.2-1.7l-1.4-0.8l-6.4,4.4l-5.2-5.2l4.4-6.4l-0.8-1.4c-0.7-1.3-1.3-2.7-1.7-4.2L37.6,41L30,39.7v-7.3
		l7.6-1.4l0.5-1.6c0.4-1.5,1-2.9,1.7-4.2l0.8-1.4l-4.4-6.4l5.2-5.2l6.4,4.4l1.4-0.8c1.3-0.7,2.8-1.3,4.2-1.7l1.6-0.5L56.4,6h7.3
		l1.4,7.6l1.6,0.5c1.5,0.4,2.9,1,4.2,1.7l1.4,0.8l6.4-4.4l5.2,5.2l-4.4,6.4l0.8,1.4c0.7,1.3,1.3,2.7,1.7,4.2l0.5,1.6l7.6,1.4v7.3
		l-7.6,1.4L82,42.7c-0.4,1.5-1,2.9-1.7,4.2l-0.8,1.4L83.8,54.6z"/>
	<path class="st0" d="M60,24c-6.6,0-12,5.4-12,12s5.4,12,12,12s12-5.4,12-12S66.6,24,60,24z M60,45c-5,0-9-4-9-9s4-9,9-9s9,4,9,9
		S65,45,60,45z"/>
</g>
</svg>
