<?xml version="1.0" encoding="utf-8"?>
<!-- Generator: Adobe Illustrator 18.1.1, SVG Export Plug-In . SVG Version: 6.00 Build 0)  -->
<!DOCTYPE svg PUBLIC "-//W3C//DTD SVG 1.1//EN" "http://www.w3.org/Graphics/SVG/1.1/DTD/svg11.dtd">
<svg version="1.1" id="Layer_1" xmlns="http://www.w3.org/2000/svg" xmlns:xlink="http://www.w3.org/1999/xlink" x="0px" y="0px"
	 viewBox="0 0 120 72" style="enable-background:new 0 0 120 72;" xml:space="preserve">
<style type="text/css">
	.st0{fill:#FFFFFF;}
</style>
<g>
	<path class="st0" d="M70.7,17.7C70.7,29.5,54.9,35,57,51h3.8C59,36.3,75.1,30.4,75.1,17.4c0-8.4-5.6-14.7-15-14.7
		c-6.6,0-11.5,3.3-15.3,7.5l2.6,2.4c3.2-3.9,7.7-6.1,12.4-6.1C67.3,6.4,70.7,11.7,70.7,17.7z"/>
	<path class="st0" d="M59.2,60.6c-2.1,0-4,1.6-4,4.4c0,2.7,1.9,4.3,4,4.3s4.1-1.6,4.1-4.3C63.3,62.2,61.3,60.6,59.2,60.6z"/>
</g>
</svg>
