<?xml version="1.0" encoding="UTF-8" standalone="no"?>
<!-- Created with Inkscape (http://www.inkscape.org/) -->

<svg
   xmlns:dc="http://purl.org/dc/elements/1.1/"
   xmlns:cc="http://creativecommons.org/ns#"
   xmlns:rdf="http://www.w3.org/1999/02/22-rdf-syntax-ns#"
   xmlns:svg="http://www.w3.org/2000/svg"
   xmlns="http://www.w3.org/2000/svg"
   version="1.1"
   width="249.12601"
   height="165.19099"
   viewBox="0 0 249.126 165.191"
   id="svg2"
   style="overflow:visible">
  <metadata
     id="metadata20">
    <rdf:RDF>
      <cc:Work
         rdf:about="">
        <dc:format>image/svg+xml</dc:format>
        <dc:type
           rdf:resource="http://purl.org/dc/dcmitype/StillImage" />
        <dc:title></dc:title>
      </cc:Work>
    </rdf:RDF>
  </metadata>
  <defs
     id="defs18" />
  <rect
     width="321.46857"
     height="183.37814"
     x="-32.171604"
     y="-7.0508256"
     transform="translate(-7.8662792e-6,0)"
     id="rect2987"
     style="fill:none;stroke:none" />
  <path
     d="M 85.003,164.563 37.612,34.904 167.757,0.091 l 23.674,135.994 -49.344,29.016 z"
     id="path4"
     style="fill:none;stroke:#ffffff;stroke-width:3;stroke-miterlimit:4;stroke-opacity:1;stroke-dasharray:none" />
  <path
     d="M 139.144,153.796 179.011,130.339 158.775,14.123 105.586,28.352 z"
     id="path6"
     style="fill:none;stroke:#ffffff;stroke-width:3;stroke-miterlimit:4;stroke-opacity:1;stroke-dasharray:none" />
  <path
     d="m 229.654,67.17 6.064,20.864 -46.424,13.117 c 0,0 0,27.922 -22.529,39.022 -22.527,11.101 -40.027,1.688 -40.027,1.688 l -2.802,-8.074 33.417,-9.086 7.396,-28.6 -21.529,-21.176 -30.948,9.36 -2.687,-7.345 c 0,0 14.46,-31.959 57.186,-13.782 0,0 13.463,8.401 16.482,15.81 L 229.654,67.17 z m 6.064,-1.567 7.397,-2.131 5.951,21.306 -7.742,2.348 z"
     id="path8"
     style="fill:#ffffff;fill-opacity:1" />
  <path
     d="m 13.516,91.714 5.47,21.024 46.586,-12.477 c 0,0 14.294,23.98 39.336,21.983 25.049,-1.996 35.254,-19.034 35.254,-19.034 l -1.727,-8.368 -33.354,9.296 -20.993,-20.774 7.658,-29.228 31.384,-7.793 -1.453,-7.69 c 0,0 -28.772,-20.059 -56.188,17.416 0,0 -7.256,14.102 -6.072,22.01 L 13.516,91.714 z m -6.008,1.76 -7.448,1.951 5.791,21.344 7.857,-1.939 z"
     id="path12"
     style="fill:#ffffff;fill-opacity:1" />
</svg>
