<?xml version="1.0" encoding="UTF-8" standalone="no"?>
<!-- Created with Inkscape (http://www.inkscape.org/) -->

<svg
   xmlns:dc="http://purl.org/dc/elements/1.1/"
   xmlns:cc="http://creativecommons.org/ns#"
   xmlns:rdf="http://www.w3.org/1999/02/22-rdf-syntax-ns#"
   xmlns:svg="http://www.w3.org/2000/svg"
   xmlns="http://www.w3.org/2000/svg"
   version="1.1"
   width="120"
   height="72"
   id="svg2">
  <defs
     id="defs4" />
  <metadata
     id="metadata7">
    <rdf:RDF>
      <cc:Work
         rdf:about="">
        <dc:format>image/svg+xml</dc:format>
        <dc:type
           rdf:resource="http://purl.org/dc/dcmitype/StillImage" />
        <dc:title></dc:title>
      </cc:Work>
    </rdf:RDF>
  </metadata>
  <g
     transform="translate(0,-980.36218)"
     id="layer1">
    <g
       id="g3796">
      <rect
         width="119.92358"
         height="71.87487"
         rx="2.5247652e-14"
         ry="2.4688889e-14"
         x="0.40131307"
         y="980.30811"
         id="rect3833"
         style="fill:none;stroke:none" />
      <path
         d="m 57.189263,992.33955 c -9.182031,0 -16.856756,6.43978 -18.759634,15.04955 -2.150317,-0.9716 -4.536586,-1.5172 -7.049576,-1.5172 -9.466,0 -17.137836,7.6763 -17.137836,17.1423 0,9.4659 7.671836,17.1378 17.137836,17.1378 0.896589,0 1.778164,-0.068 2.637597,-0.2005 l 51.452749,0 c 0.184913,0 0.360897,-0.02 0.527525,-0.057 11.401179,-0.5252 20.486066,-9.9361 20.486066,-21.4669 0,-11.8682 -9.620813,-21.48893 -21.488794,-21.48893 -4.448325,0 -8.582208,1.35138 -12.01087,3.66653 -3.46998,-4.996 -9.251527,-8.26607 -15.795063,-8.26607 z"
         id="rect3002"
         style="fill:none;stroke:#ffffff;stroke-width:3;stroke-linecap:round;stroke-linejoin:miter;stroke-miterlimit:4;stroke-opacity:1;stroke-dasharray:none;stroke-dashoffset:0" />
    </g>
  </g>
</svg>
